<svg width="223" height="223" viewBox="0 0 223 223" fill="none" xmlns="http://www.w3.org/2000/svg">
<circle cx="111.5" cy="111.5" r="111.5" fill="#BB14E4"/>
<path fill-rule="evenodd" clip-rule="evenodd" d="M141 219.056C188.264 206.122 223 162.868 223 111.5C223 78.5579 208.714 48.9525 186 28.5408C183.2 110.908 133.167 126.167 108.5 123.5C80.3333 121.833 32.2 113.6 65 94C106 69.5 126.5 -7.5 77.5 46C28.5 99.5 18.5 154 47 164C58.5228 168.043 72.4158 166.528 86.366 165.007C106.92 162.766 127.597 160.512 141 176C163.5 202 142.5 218.657 141 219.056Z" fill="#791193"/>
</svg>
